<svg version="1.2" xmlns="http://www.w3.org/2000/svg" viewBox="0 0 1552 452" width="1552" height="452">
	<title>6382546980886105851482453789-319-pdf</title>
	<defs>
		<clipPath clipPathUnits="userSpaceOnUse" id="cp1">
			<path d="m-5832-469h10239v6827h-10239z"/>
		</clipPath>
	</defs>
	<style>
		.s0 { fill: #e82b19 } 
		.s1 { fill: #1163b5 } 
	</style>
	<g id="Page 1" clip-path="url(#cp1)">
		<path id="Path 4" fill-rule="evenodd" class="s0" d="m686.5 59.5h30.5l-0.2 50.6h54.3v-50.6l30.3-0.2v125.8h-30.3v-50.6h-54.3v50.6h-30.3zm134.9-0.2q15 0 30 0.1v125.6h-30zm49.8 0c27.2 0 31.2 1.7 42.6 16.3l51.8 63.8v-80.1h30.4v125.7h-7.2c-17.8 0-22.8-0.3-41.4-24.7l-45.8-56.6v81.3h-30.4zm570.8 103.4h49.5c9.9 0 16.5-1 19.9-2.8 4.7-2.6 7.1-6.6 7.1-11.9 0-6-2.8-10.5-8.3-13.3-7.4-3.7-19.8-2.4-28-2.4-15.4 0-26.4-2.6-33.1-7.7-4.3-3.3-7.5-7.4-9.9-12.3q-3.6-7.5-3.6-15.8 0-13.3 8.3-24.3c5.4-7 14.1-11.1 26.1-12.3 4-0.4 10-0.5 18-0.5h54.9l-0.1 22.3h-48.3c-9 0-15 0.5-18 1.1q-9.1 2.1-9.1 12.8 0 9 7.6 12.2 5.2 2.1 17.1 2.1c11.2 0 23.6-0.8 34.3 2.7 9.6 3 16.2 8.3 19.7 15.8q4.4 9.1 4.4 19.6 0 11.4-5.7 20.5c-5.2 8.6-13.2 13.7-23.9 15.4q-7.7 1.2-23.1 1.2h-55.7zm-826.7 24.3c18.9-18.5 24.3-34.1 23.5-48.6h37.7c-7.1 27.8-31.8 48.5-61.2 48.6zm1.9-129.6c28.5 0.9 52.4 21.3 59.3 48.6h-47c-6.3-15-13.3-30.4-12.3-48.6zm-2.2-0.1q0.4 0 0.8 0c-55.1 44.6-0.1 86.5-1.6 129.7-34.6-0.5-62.6-29.4-62.6-64.8 0-35.7 28.5-64.9 63.4-64.9z"/>
		<path id="Path 5" fill-rule="evenodd" class="s0" d="m1230.6 57.4c26.8 0.9 49.4 19.1 57.6 44.1h-47.3c-5.7-13.6-11.1-27.7-10.3-44.1zm60.8 68.1c-1.7 34.1-29.2 61.4-62.6 61.6 17.3-17.2 23.2-31.8 23.4-45.5h-13v-16.1zm-62.9-68.1q0.4 0 0.7 0c-54.7 44.5 0 86.4-1.6 129.7-34.3-0.6-62.1-29.5-62.1-64.9 0-35.7 28.3-64.8 63-64.8zm-130.9 2l57.4 125.7h-29.7l-14.7-32h-61.1l-14.7 32h-29.7l57.6-125.7zm1.8 69.2l-17.7-38.6c-1.4-2.9-2.7-1.3-3.3-0.1l-17.8 38.7z"/>
		<path id="Path 6" fill-rule="evenodd" class="s0" d="m1378.1 59.4l57.3 125.7h-29.7l-14.6-32h-61.2l-14.6 32h-29.7l57.5-125.7zm1.9 69.2l-17.7-38.6c-1.4-2.9-2.7-1.3-3.3-0.1l-17.7 38.7zm12.4 148.9l156.2 0.5v19.1h-194.8c0-7.2 0.3-13.5 0.2-20.7h5.3c3.5 0 5.7-2 7.3-5.1l7.2-13.8c4.5-8.6 11.5-9.1 17.8-9.1 51.5 0 100.1 0 157.4 0v20.5h-151.7c-1.6 3.4-2.8 5.7-4.9 8.6zm-37.1 27.3h168c10.9 0 18.5 2.3 18.5 17v65.9q0 4.3 5 4.3h3.8v23h-13.7c-13.1 0-19.7-5.7-19.7-16.7v-67c0-5.4-1.6-6.2-5.7-6.2h-156.2zm89.1 64.3v45.9h-24.6v-45.9h-61.8v-21.7h17.6l-7.8-13.3h29.8l7.8 13.3h14.4v-14.7h24.6v14.7h14.3l8.1-13.3h29.4l-8.2 13.3h17.8v21.7zm43.7 7.5l4 11.6c1.1 3 4.4 4.5 8.1 4.5h5.7l-0.1 18.9h-16.6c-10.6 0-17.6-3.6-20.4-11l-9.2-24zm-83.7 0l-9.2 24c-2.8 7.4-9.8 11-20.3 11h-16.6l-0.2-18.9h5.7c3.7 0 7-1.5 8-4.5l4.1-11.6zm-676.6 18.6h-64v21.3h-27.7v-21.3h-50.2c0-10.9 6.6-24.1 21.3-24.1h28.9v-79.8h-52.9c-3 0-4.1 1.5-4.1 3.4l0.1 100.3-27.7 0.2v-105.8c0-12 2.4-22.1 23.6-22.1h61v-20.4h27.8l-0.1 20.4h63.6c18.3 0 20.9 8.5 20.9 18.4v92.5q-0.2 17-20.5 17zm-64-24.1h51.6c3.5 0 5.3-1.5 5.3-4.3v-71.6c0-3.3-2.5-3.9-4.2-3.9-21.1 0-31.6 0-52.7 0zm578.2-4.4l2 20.9c0.3 2.9 0.2 6 3.4 6h4.2v21.4h-9.8c-9.7 0-17.8-1.5-18.9-16.5l-2.3-31.8zm32.4 0l2 20.9c0.3 2.9 0.2 6 3.4 6h4.2v21.4h-9.7c-9.7 0-17.9-1.5-19-16.5l-2.3-31.8zm-124-56.9c-0.5 11.5-4.4 15.9-17.8 16.2l15.2 62.9c0.8 3.5 1.8 4.7 4.2 4.7h3.7c4.3 0 3.7-6.9 4.2-10.3l2.4-16.6h21.1l-3.9 32.9c-0.6 9.4-10.7 15.6-20.6 15.4h-10c-11 0-18.8-2.5-21.7-12.8l-5.8-23-5.5 23.2c-2 8.8-10 12.6-16.1 12.6h-12.4l-0.2-21.5h2.2c2.4 0 4.9-1.4 5.6-4.8l13.4-63c-14.2-0.2-18.2-6.2-18.8-15.4l-1.6-59.8h13.2l1.8 55.4c0.1 2.7 3.8 2.2 5.7 2.2v-59.7h24v60.4c2.3 0 5.3 0.1 5.5-2.7l2-55.6h12.4zm59.7 56.9l2 20.9c0.3 3 0.2 6 3.4 6h4.2v21.4h-9.7c-9.8 0-17.9-1.5-18.9-16.5l-2.4-31.8z"/>
		<path id="Path 7" fill-rule="evenodd" class="s0" d="m1232.6 288.5h-11.5c-7.5 24.7-16.7 55.2-18.6 61.4-3.2 7.2-8.2 10.7-19 10.7h-31.1l0.1-20.2h23.1c3.5-0.1 5.9-1.8 7.2-5l0.9-3h-7.2c-6.6 0-11.8-3.3-15-10.8l-5.3-18.8h20.7l2.5 9.9c2.4 6.3 6 5.6 8.5 5.6l4.2-14.5h-1.1c-6.6-0.1-11-2.4-13.1-9l-2-5.6c-3.4 4.3-9.2 5.4-14.9 5.4h-5.1v-17.9c1.8-0.1 4 0.1 4.9-2.3q2.5-8.7 5-17.5c2.2-7.9 5.7-8.5 12.5-8.5h30.6c12.5 0 18.9 7 16.1 19.9h9.6v-19.9h24.1v19.9h6.2c1.3 0 2.7-0.6 2.7-3.1v-13.8h15.7c0 6.2 0 14.7 0 20.9 0.1 12.5-8.2 16.2-15.5 16.2h-6.5l14.7 49.2c0.8 2.7 1.3 2.7 4.4 2.7h2.2v20.2h-8.8c-11.4 0-16.4-4.3-19.1-13.3l-7.5-25.2-7.2 23.1c-2 9.2-5.2 15.3-14.4 15.4h-15.5v-20.2h4.3c2.1 0 3.2-1.7 4.1-4.4zm-33.1-20q-5.7 0-11.4 0c-1.5 0.1-3.1 0.1-3.8 2.7l-2.9 9.5h9.2c0.8 1.9 3.3 10.7 5.1 10.5l6.2-20c0.8-2.7-0.4-2.7-2.4-2.7zm-202.1 146.5h-144.3c0.3-9.8 7.3-22.3 20.5-22.2h113.4q5.2-0.1 5.2-4.5v-112.3c0-4.5-1.8-5.4-5.4-5.4-44.3 0-88.7 0-133 0-5.8 0-6.6 2.6-6.6 6.3v115.9 22.2h-25.8v-141.8c0-16.2 2.6-24.9 25-24.9 49.7 0 99.4 0 149 0 19.1 0 22.7 6.3 22.7 22.6v126.8c-0.1 11.5-7 17.3-20.7 17.3z"/>
		<path id="Path 8" fill-rule="evenodd" class="s0" d="m958.2 355.2l2 7.4c0.7 2.7 3.1 4.2 6.1 4.2h12.2v17.6h-16.5c-12.9 0-19-4.7-20.9-13.7l-3-14.4h-11.6l0.2-17.8h8.7l-7.2-37.1h-68v-17.1h64.6l-0.9-5.3h18.8l1 5.3h12.5c2.5 0 3-0.7 3.1-2.5v-2h19l0.1 9.7c0 5.7-0.7 11.9-12.2 11.9h-19.1l6.8 35.3c3.8 0.4 4.6-1.1 5.1-5.3l3.3-24.6h17l-3.6 31.7c-1.4 12.4-8 16.6-17.5 16.7zm-79.1-31.5c-1.3 0-2.1 0.5-2.1 2 0 11.6 0.1 23.2 0.1 34.8h-16.7v-44.3c0-4.7 0.8-7.3 8.3-7.3h44.4c3.9 0 7.5 0.3 7.5 7.1v28.7c-0.1 8.9-4.9 15.3-14.8 15.4l-24.7 0.4c0-12.7 6.1-16 13.8-16h4.1c3.5 0 5.3-1.9 5.3-4.5v-14.1c0-0.9-0.5-2.2-2.2-2.2zm43.3 43.1v17.6h-62.1v-17.6z"/>
		<path id="Path 9" class="s1" d="m331.3 425.8c-29.8 15.7-63.6 24.9-99.3 25.7v-30.8zm63.3-49.6c-6.3 7.1-13.1 13.8-20.2 20l-142.5 7.5v-35.8zm34.4-51.1c-2.7 5.4-5.5 10.7-8.6 15.8l-188.5 10v-15.3c0-4.2 0.4-7.1 4.3-9.8q7.4-5 13.4-9.9zm17.8-51.9q-1.4 6.9-3.3 13.7l-174.4 9.2c8-10.6 11.9-21.1 13-31.3zm4.7-52.6c0 2.1 0.1 4.3 0.1 6.5 0 2.2-0.1 4.3-0.1 6.5l-171.4 9.1c-2.6-10.6-7.6-21.1-13.4-31.6zm-8-53.3c1.2 4.6 2.4 9.2 3.3 13.8l-191.9 10.1c-7-11.4-14-22.9-19.1-34.4zm-23-54c3.1 5.1 5.9 10.4 8.6 15.8l-194.8 10.3c-1.8 0.1-2.4-2-2.4-3.4v-32.3zm-45.8-55.2q10.7 9.3 20.2 20l-162.9 8.6v-35.9zm-142.7-55.5c35.9 0.8 69.9 10.1 99.8 26l-99.8 5.2z"/>
		<path id="Path 10" class="s0" d="m222 451.5c-121.5-2.7-219.8-102.5-219.8-224.5 0-122 98.3-221.8 219.8-224.5v113.5c0 5.3-1.8 9.5-6.1 12.9-95.1 75.7-10.4 117 4.9 180 1 4.1 1.2 7.6 1.2 11.7z"/>
	</g>
</svg>